<svg xmlns="http://www.w3.org/2000/svg" viewBox="0 0 1000 1000"><g transform="translate(500 520)"><path d="M0-455 58-150 228-375 150-90 430-210 190-28 470 48 170 70 350 330 92 155 100 455 0 190-105 455-92 150-360 328-170 66-470 42-188-30-430-215-150-92-230-378-58-150Z" fill="#d9ae47" opacity=".9"/><circle r="235" fill="none" stroke="#12151b" stroke-width="45" opacity=".92"/><circle r="160" fill="none" stroke="#f3e5bd" stroke-width="26" opacity=".9"/><g fill="#11151b"><circle cx="-320" cy="-190" r="32"/><circle cx="335" cy="-220" r="21"/><circle cx="360" cy="185" r="28"/><circle cx="-355" cy="230" r="19"/></g></g></svg>